<svg xmlns="http://www.w3.org/2000/svg" viewBox="0 0 1400 1400" width="1400" height="1400">
<defs><linearGradient id="g" x1="0" y1="0" x2="1" y2="1"><stop offset="0" stop-color="#fefcfd"/><stop offset="0.36" stop-color="#f8ecf1"/><stop offset="0.72" stop-color="#f2dde5"/><stop offset="1" stop-color="#e9c9d5"/></linearGradient></defs>
<rect width="1400" height="1400" fill="url(#g)"/>
<g><path d="M0 0L68 0L49 68Z" fill="#f5f2f4"/><path d="M0 0L49 68L0 48Z" fill="#fffeff"/><path d="M68 0L131 0L49 68Z" fill="#fcf9fa"/><path d="M131 0L133 84L49 68Z" fill="#fffbfd"/><path d="M131 0L200 0L228 58Z" fill="#fffeff"/><path d="M131 0L228 58L133 84Z" fill="#f2eef0"/><path d="M200 0L286 0L228 58Z" fill="#f3eff1"/><path d="M286 0L286 61L228 58Z" fill="#fffafc"/><path d="M286 0L345 0L330 63Z" fill="#ffffff"/><path d="M286 0L330 63L286 61Z" fill="#f7f2f4"/><path d="M345 0L417 0L330 63Z" fill="#f1ebee"/><path d="M417 0L406 75L330 63Z" fill="#f3edf0"/><path d="M417 0L480 0L469 88Z" fill="#f8f2f5"/><path d="M417 0L469 88L406 75Z" fill="#f1ebed"/><path d="M480 0L570 0L469 88Z" fill="#f3ecef"/><path d="M570 0L561 79L469 88Z" fill="#f5edf0"/><path d="M570 0L637 0L605 58Z" fill="#f4ecef"/><path d="M570 0L605 58L561 79Z" fill="#fbf3f6"/><path d="M637 0L704 0L605 58Z" fill="#fffcff"/><path d="M704 0L717 79L605 58Z" fill="#fdf4f8"/><path d="M704 0L748 0L789 87Z" fill="#eee4e9"/><path d="M704 0L789 87L717 79Z" fill="#f1e7eb"/><path d="M748 0L818 0L789 87Z" fill="#fff9fe"/><path d="M818 0L829 60L789 87Z" fill="#fff4f9"/><path d="M818 0L902 0L929 86Z" fill="#fbf0f5"/><path d="M818 0L929 86L829 60Z" fill="#f7ecf0"/><path d="M902 0L992 0L929 86Z" fill="#fff5fa"/><path d="M992 0L1005 79L929 86Z" fill="#f7eaef"/><path d="M992 0L1024 0L1075 71Z" fill="#fceff4"/><path d="M992 0L1075 71L1005 79Z" fill="#ede0e6"/><path d="M1024 0L1117 0L1075 71Z" fill="#f7eaf0"/><path d="M1117 0L1103 52L1075 71Z" fill="#fef1f6"/><path d="M1117 0L1175 0L1182 89Z" fill="#fceef4"/><path d="M1117 0L1182 89L1103 52Z" fill="#efe1e7"/><path d="M1175 0L1275 0L1182 89Z" fill="#f6e7ed"/><path d="M1275 0L1253 78L1182 89Z" fill="#f7e8ee"/><path d="M1275 0L1348 0L1309 83Z" fill="#fcedf3"/><path d="M1275 0L1309 83L1253 78Z" fill="#feeff5"/><path d="M1348 0L1400 0L1309 83Z" fill="#f8e9ef"/><path d="M1400 0L1400 90L1309 83Z" fill="#faeaf1"/><path d="M0 48L49 68L0 125Z" fill="#ffffff"/><path d="M49 68L75 115L0 125Z" fill="#ffffff"/><path d="M49 68L133 84L131 115Z" fill="#ffffff"/><path d="M49 68L131 115L75 115Z" fill="#f8f4f6"/><path d="M133 84L228 58L131 115Z" fill="#f2eef0"/><path d="M228 58L218 164L131 115Z" fill="#ffffff"/><path d="M228 58L286 61L300 128Z" fill="#fdf7f9"/><path d="M228 58L300 128L218 164Z" fill="#fdf7f9"/><path d="M286 61L330 63L300 128Z" fill="#fffcfe"/><path d="M330 63L353 163L300 128Z" fill="#fdf7fa"/><path d="M330 63L406 75L432 146Z" fill="#f4edf0"/><path d="M330 63L432 146L353 163Z" fill="#f6eff2"/><path d="M406 75L469 88L432 146Z" fill="#fdf5f9"/><path d="M469 88L492 160L432 146Z" fill="#fffeff"/><path d="M469 88L561 79L582 148Z" fill="#f8eff3"/><path d="M469 88L582 148L492 160Z" fill="#f2eaed"/><path d="M561 79L605 58L582 148Z" fill="#fff9fd"/><path d="M605 58L636 153L582 148Z" fill="#fdf4f8"/><path d="M605 58L717 79L682 132Z" fill="#fff8fc"/><path d="M605 58L682 132L636 153Z" fill="#fff9fd"/><path d="M717 79L789 87L682 132Z" fill="#efe5e9"/><path d="M789 87L745 136L682 132Z" fill="#f9eff3"/><path d="M789 87L829 60L846 141Z" fill="#f5eaee"/><path d="M789 87L846 141L745 136Z" fill="#fff5f9"/><path d="M829 60L929 86L846 141Z" fill="#fdf1f6"/><path d="M929 86L902 153L846 141Z" fill="#f9edf2"/><path d="M929 86L1005 79L978 132Z" fill="#f8ebf0"/><path d="M929 86L978 132L902 153Z" fill="#ede0e5"/><path d="M1005 79L1075 71L978 132Z" fill="#f4e7ec"/><path d="M1075 71L1028 118L978 132Z" fill="#f2e5eb"/><path d="M1075 71L1103 52L1123 135Z" fill="#f3e5eb"/><path d="M1075 71L1123 135L1028 118Z" fill="#fff2f8"/><path d="M1103 52L1182 89L1123 135Z" fill="#ecdee3"/><path d="M1182 89L1208 114L1123 135Z" fill="#f4e5eb"/><path d="M1182 89L1253 78L1247 164Z" fill="#f9eaf0"/><path d="M1182 89L1247 164L1208 114Z" fill="#feeff5"/><path d="M1253 78L1309 83L1247 164Z" fill="#f9eaf0"/><path d="M1309 83L1350 139L1247 164Z" fill="#fff1f7"/><path d="M1309 83L1400 90L1400 155Z" fill="#feeef5"/><path d="M1309 83L1400 155L1350 139Z" fill="#f8e8ef"/><path d="M0 125L75 115L76 214Z" fill="#fffeff"/><path d="M0 125L76 214L0 212Z" fill="#f8f4f6"/><path d="M75 115L131 115L76 214Z" fill="#ffffff"/><path d="M131 115L157 210L76 214Z" fill="#f4eff1"/><path d="M131 115L218 164L190 233Z" fill="#fffbfd"/><path d="M131 115L190 233L157 210Z" fill="#ffffff"/><path d="M218 164L300 128L190 233Z" fill="#fffafc"/><path d="M300 128L265 204L190 233Z" fill="#f3edf0"/><path d="M300 128L353 163L348 212Z" fill="#f2ebee"/><path d="M300 128L348 212L265 204Z" fill="#f9f2f5"/><path d="M353 163L432 146L348 212Z" fill="#fffeff"/><path d="M432 146L437 186L348 212Z" fill="#f0e8eb"/><path d="M432 146L492 160L509 184Z" fill="#fffcff"/><path d="M432 146L509 184L437 186Z" fill="#fffdff"/><path d="M492 160L582 148L509 184Z" fill="#f9f0f3"/><path d="M582 148L562 214L509 184Z" fill="#fff6fa"/><path d="M582 148L636 153L637 200Z" fill="#fffbff"/><path d="M582 148L637 200L562 214Z" fill="#f7eef2"/><path d="M636 153L682 132L637 200Z" fill="#fdf3f7"/><path d="M682 132L711 234L637 200Z" fill="#fef4f8"/><path d="M682 132L745 136L750 235Z" fill="#fbf0f5"/><path d="M682 132L750 235L711 234Z" fill="#fff4f9"/><path d="M745 136L846 141L750 235Z" fill="#fff5fa"/><path d="M846 141L845 224L750 235Z" fill="#fff4f9"/><path d="M846 141L902 153L922 212Z" fill="#efe2e7"/><path d="M846 141L922 212L845 224Z" fill="#f0e3e9"/><path d="M902 153L978 132L922 212Z" fill="#f7eaef"/><path d="M978 132L962 193L922 212Z" fill="#fbeef3"/><path d="M978 132L1028 118L1059 233Z" fill="#f8eaf0"/><path d="M978 132L1059 233L962 193Z" fill="#fdeff5"/><path d="M1028 118L1123 135L1059 233Z" fill="#f8eaf0"/><path d="M1123 135L1137 226L1059 233Z" fill="#f3e4ea"/><path d="M1123 135L1208 114L1213 231Z" fill="#f8e9ef"/><path d="M1123 135L1213 231L1137 226Z" fill="#fff2f8"/><path d="M1208 114L1247 164L1213 231Z" fill="#f6e6ec"/><path d="M1247 164L1234 219L1213 231Z" fill="#feeef4"/><path d="M1247 164L1350 139L1313 197Z" fill="#faeaf1"/><path d="M1247 164L1313 197L1234 219Z" fill="#ebdbe1"/><path d="M1350 139L1400 155L1313 197Z" fill="#f7e6ed"/><path d="M1400 155L1400 232L1313 197Z" fill="#fbeaf1"/><path d="M0 212L76 214L0 286Z" fill="#f6f2f4"/><path d="M76 214L86 264L0 286Z" fill="#fcf7f9"/><path d="M76 214L157 210L117 277Z" fill="#f3eef0"/><path d="M76 214L117 277L86 264Z" fill="#fcf7f9"/><path d="M157 210L190 233L117 277Z" fill="#f5eff2"/><path d="M190 233L227 270L117 277Z" fill="#f9f2f5"/><path d="M190 233L265 204L256 282Z" fill="#f1eaed"/><path d="M190 233L256 282L227 270Z" fill="#f6eff2"/><path d="M265 204L348 212L256 282Z" fill="#f9f2f5"/><path d="M348 212L341 274L256 282Z" fill="#fffcff"/><path d="M348 212L437 186L442 299Z" fill="#efe7eb"/><path d="M348 212L442 299L341 274Z" fill="#fffcff"/><path d="M437 186L509 184L442 299Z" fill="#fff8fc"/><path d="M509 184L482 303L442 299Z" fill="#fff7fb"/><path d="M509 184L562 214L540 268Z" fill="#fcf2f6"/><path d="M509 184L540 268L482 303Z" fill="#f6ecf0"/><path d="M562 214L637 200L540 268Z" fill="#f6ecf1"/><path d="M637 200L610 294L540 268Z" fill="#fff8fc"/><path d="M637 200L711 234L680 293Z" fill="#fbf0f5"/><path d="M637 200L680 293L610 294Z" fill="#f5eaef"/><path d="M711 234L750 235L680 293Z" fill="#fef3f8"/><path d="M750 235L759 275L680 293Z" fill="#eee2e7"/><path d="M750 235L845 224L866 289Z" fill="#fff4fa"/><path d="M750 235L866 289L759 275Z" fill="#f5e9ee"/><path d="M845 224L922 212L866 289Z" fill="#f1e4ea"/><path d="M922 212L923 279L866 289Z" fill="#f0e2e8"/><path d="M922 212L962 193L975 276Z" fill="#f4e6ec"/><path d="M922 212L975 276L923 279Z" fill="#fbedf3"/><path d="M962 193L1059 233L975 276Z" fill="#efe1e7"/><path d="M1059 233L1033 298L975 276Z" fill="#f5e7ec"/><path d="M1059 233L1137 226L1124 274Z" fill="#fcedf3"/><path d="M1059 233L1124 274L1033 298Z" fill="#f9eaf0"/><path d="M1137 226L1213 231L1124 274Z" fill="#f3e4ea"/><path d="M1213 231L1175 290L1124 274Z" fill="#ecdce2"/><path d="M1213 231L1234 219L1236 288Z" fill="#eadae0"/><path d="M1213 231L1236 288L1175 290Z" fill="#feeef4"/><path d="M1234 219L1313 197L1236 288Z" fill="#ffeff5"/><path d="M1313 197L1356 255L1236 288Z" fill="#ead9e0"/><path d="M1313 197L1400 232L1400 255Z" fill="#ead8df"/><path d="M1313 197L1400 255L1356 255Z" fill="#ffeef5"/><path d="M0 286L86 264L48 374Z" fill="#f1ebee"/><path d="M0 286L48 374L0 350Z" fill="#f4eff1"/><path d="M86 264L117 277L48 374Z" fill="#ffffff"/><path d="M117 277L138 365L48 374Z" fill="#ffffff"/><path d="M117 277L227 270L201 369Z" fill="#f5eff2"/><path d="M117 277L201 369L138 365Z" fill="#fffeff"/><path d="M227 270L256 282L201 369Z" fill="#f1eaed"/><path d="M256 282L261 327L201 369Z" fill="#f3ecef"/><path d="M256 282L341 274L341 347Z" fill="#fef6fa"/><path d="M256 282L341 347L261 327Z" fill="#fff7fa"/><path d="M341 274L442 299L341 347Z" fill="#f2e9ed"/><path d="M442 299L435 364L341 347Z" fill="#fff6fa"/><path d="M442 299L482 303L471 339Z" fill="#f7edf1"/><path d="M442 299L471 339L435 364Z" fill="#fff8fd"/><path d="M482 303L540 268L471 339Z" fill="#f3e9ed"/><path d="M540 268L581 365L471 339Z" fill="#faeff4"/><path d="M540 268L610 294L647 342Z" fill="#fef3f8"/><path d="M540 268L647 342L581 365Z" fill="#faeff4"/><path d="M610 294L680 293L647 342Z" fill="#fef2f7"/><path d="M680 293L674 353L647 342Z" fill="#f9edf2"/><path d="M680 293L759 275L780 335Z" fill="#fceff4"/><path d="M680 293L780 335L674 353Z" fill="#ede0e5"/><path d="M759 275L866 289L780 335Z" fill="#f0e3e8"/><path d="M866 289L824 376L780 335Z" fill="#f8eaf0"/><path d="M866 289L923 279L889 362Z" fill="#fceef4"/><path d="M866 289L889 362L824 376Z" fill="#eddfe5"/><path d="M923 279L975 276L889 362Z" fill="#fff2f8"/><path d="M975 276L991 331L889 362Z" fill="#fff1f7"/><path d="M975 276L1033 298L1066 336Z" fill="#f5e6ec"/><path d="M975 276L1066 336L991 331Z" fill="#f2e3e9"/><path d="M1033 298L1124 274L1066 336Z" fill="#fff0f6"/><path d="M1124 274L1107 334L1066 336Z" fill="#fdedf4"/><path d="M1124 274L1175 290L1216 346Z" fill="#ffeff5"/><path d="M1124 274L1216 346L1107 334Z" fill="#fcecf2"/><path d="M1175 290L1236 288L1216 346Z" fill="#ead9e0"/><path d="M1236 288L1267 358L1216 346Z" fill="#fcebf1"/><path d="M1236 288L1356 255L1347 360Z" fill="#f6e4eb"/><path d="M1236 288L1347 360L1267 358Z" fill="#f4e2e9"/><path d="M1356 255L1400 255L1347 360Z" fill="#f4e2e9"/><path d="M1400 255L1400 360L1347 360Z" fill="#f1dfe6"/><path d="M0 350L48 374L0 423Z" fill="#fbf5f8"/><path d="M48 374L92 439L0 423Z" fill="#f9f2f5"/><path d="M48 374L138 365L166 411Z" fill="#ffffff"/><path d="M48 374L166 411L92 439Z" fill="#f4edf0"/><path d="M138 365L201 369L166 411Z" fill="#faf3f6"/><path d="M201 369L217 399L166 411Z" fill="#fcf4f8"/><path d="M201 369L261 327L294 417Z" fill="#f4ebef"/><path d="M201 369L294 417L217 399Z" fill="#fcf4f7"/><path d="M261 327L341 347L294 417Z" fill="#faf2f5"/><path d="M341 347L375 429L294 417Z" fill="#fff8fc"/><path d="M341 347L435 364L420 426Z" fill="#fbf1f6"/><path d="M341 347L420 426L375 429Z" fill="#fef4f8"/><path d="M435 364L471 339L420 426Z" fill="#f6ecf0"/><path d="M471 339L511 425L420 426Z" fill="#fcf1f6"/><path d="M471 339L581 365L582 421Z" fill="#fff5f9"/><path d="M471 339L582 421L511 425Z" fill="#fff6fa"/><path d="M581 365L647 342L582 421Z" fill="#fff6fb"/><path d="M647 342L623 413L582 421Z" fill="#efe3e8"/><path d="M647 342L674 353L693 431Z" fill="#fcf0f5"/><path d="M647 342L693 431L623 413Z" fill="#fdf1f6"/><path d="M674 353L780 335L693 431Z" fill="#fff5fa"/><path d="M780 335L752 401L693 431Z" fill="#fef1f6"/><path d="M780 335L824 376L850 422Z" fill="#fdeff5"/><path d="M780 335L850 422L752 401Z" fill="#fdf0f5"/><path d="M824 376L889 362L850 422Z" fill="#faecf2"/><path d="M889 362L887 441L850 422Z" fill="#f2e4ea"/><path d="M889 362L991 331L955 442Z" fill="#efe0e6"/><path d="M889 362L955 442L887 441Z" fill="#f2e3e9"/><path d="M991 331L1066 336L955 442Z" fill="#f5e6ec"/><path d="M1066 336L1029 404L955 442Z" fill="#efdfe5"/><path d="M1066 336L1107 334L1135 396Z" fill="#eedee4"/><path d="M1066 336L1135 396L1029 404Z" fill="#fff0f6"/><path d="M1107 334L1216 346L1135 396Z" fill="#f9e8ef"/><path d="M1216 346L1200 395L1135 396Z" fill="#f4e3ea"/><path d="M1216 346L1267 358L1237 409Z" fill="#fcebf2"/><path d="M1216 346L1237 409L1200 395Z" fill="#ffedf4"/><path d="M1267 358L1347 360L1237 409Z" fill="#f7e5ec"/><path d="M1347 360L1353 426L1237 409Z" fill="#f7e5ec"/><path d="M1347 360L1400 360L1400 432Z" fill="#feecf3"/><path d="M1347 360L1400 432L1353 426Z" fill="#f3e0e7"/><path d="M0 423L92 439L52 486Z" fill="#f6eff2"/><path d="M0 423L52 486L0 514Z" fill="#f3ecef"/><path d="M92 439L166 411L52 486Z" fill="#fffbff"/><path d="M166 411L128 511L52 486Z" fill="#faf2f5"/><path d="M166 411L217 399L222 466Z" fill="#f4ecef"/><path d="M166 411L222 466L128 511Z" fill="#f4ebef"/><path d="M217 399L294 417L222 466Z" fill="#fff8fb"/><path d="M294 417L298 490L222 466Z" fill="#f6edf1"/><path d="M294 417L375 429L331 475Z" fill="#fff5f9"/><path d="M294 417L331 475L298 490Z" fill="#f2e8ec"/><path d="M375 429L420 426L331 475Z" fill="#f6ecf0"/><path d="M420 426L433 516L331 475Z" fill="#fff9fe"/><path d="M420 426L511 425L468 504Z" fill="#f4e9ed"/><path d="M420 426L468 504L433 516Z" fill="#fff5fa"/><path d="M511 425L582 421L468 504Z" fill="#f0e4e9"/><path d="M582 421L572 496L468 504Z" fill="#f2e6eb"/><path d="M582 421L623 413L614 495Z" fill="#fff6fb"/><path d="M582 421L614 495L572 496Z" fill="#f7eaf0"/><path d="M623 413L693 431L614 495Z" fill="#fff5fa"/><path d="M693 431L680 500L614 495Z" fill="#f4e7ed"/><path d="M693 431L752 401L752 495Z" fill="#ecdee4"/><path d="M693 431L752 495L680 500Z" fill="#fff4f9"/><path d="M752 401L850 422L752 495Z" fill="#fceef4"/><path d="M850 422L836 469L752 495Z" fill="#fdeef4"/><path d="M850 422L887 441L906 493Z" fill="#efe0e6"/><path d="M850 422L906 493L836 469Z" fill="#f1e3e8"/><path d="M887 441L955 442L906 493Z" fill="#fdedf3"/><path d="M955 442L966 515L906 493Z" fill="#f7e8ee"/><path d="M955 442L1029 404L1070 480Z" fill="#fdecf3"/><path d="M955 442L1070 480L966 515Z" fill="#f9e9f0"/><path d="M1029 404L1135 396L1070 480Z" fill="#f9e9ef"/><path d="M1135 396L1113 480L1070 480Z" fill="#ead9e0"/><path d="M1135 396L1200 395L1215 470Z" fill="#f2e1e8"/><path d="M1135 396L1215 470L1113 480Z" fill="#f8e6ed"/><path d="M1200 395L1237 409L1215 470Z" fill="#e9d8df"/><path d="M1237 409L1256 478L1215 470Z" fill="#fdebf2"/><path d="M1237 409L1353 426L1309 466Z" fill="#e8d6dd"/><path d="M1237 409L1309 466L1256 478Z" fill="#fae8ef"/><path d="M1353 426L1400 432L1309 466Z" fill="#f2dfe6"/><path d="M1400 432L1400 505L1309 466Z" fill="#feeaf2"/><path d="M0 514L52 486L0 556Z" fill="#fbf4f7"/><path d="M52 486L72 581L0 556Z" fill="#fff8fc"/><path d="M52 486L128 511L114 554Z" fill="#fdf5f8"/><path d="M52 486L114 554L72 581Z" fill="#fffcff"/><path d="M128 511L222 466L114 554Z" fill="#fff9fc"/><path d="M222 466L185 551L114 554Z" fill="#faf1f5"/><path d="M222 466L298 490L295 534Z" fill="#fffbff"/><path d="M222 466L295 534L185 551Z" fill="#f7eef2"/><path d="M298 490L331 475L295 534Z" fill="#f0e6eb"/><path d="M331 475L329 556L295 534Z" fill="#f0e6ea"/><path d="M331 475L433 516L413 563Z" fill="#faeff4"/><path d="M331 475L413 563L329 556Z" fill="#f9eef3"/><path d="M433 516L468 504L413 563Z" fill="#fcf0f5"/><path d="M468 504L465 558L413 563Z" fill="#f3e7ec"/><path d="M468 504L572 496L581 584Z" fill="#eee1e6"/><path d="M468 504L581 584L465 558Z" fill="#f6eaef"/><path d="M572 496L614 495L581 584Z" fill="#fff3f8"/><path d="M614 495L644 582L581 584Z" fill="#f4e7ec"/><path d="M614 495L680 500L725 567Z" fill="#eee0e5"/><path d="M614 495L725 567L644 582Z" fill="#f2e5ea"/><path d="M680 500L752 495L725 567Z" fill="#f0e2e8"/><path d="M752 495L747 564L725 567Z" fill="#fcedf3"/><path d="M752 495L836 469L865 543Z" fill="#efe0e6"/><path d="M752 495L865 543L747 564Z" fill="#fbecf2"/><path d="M836 469L906 493L865 543Z" fill="#fbebf2"/><path d="M906 493L895 552L865 543Z" fill="#feeef5"/><path d="M906 493L966 515L1002 542Z" fill="#f0dfe6"/><path d="M906 493L1002 542L895 552Z" fill="#eddde4"/><path d="M966 515L1070 480L1002 542Z" fill="#feedf4"/><path d="M1070 480L1038 582L1002 542Z" fill="#eddce2"/><path d="M1070 480L1113 480L1105 537Z" fill="#ead8df"/><path d="M1070 480L1105 537L1038 582Z" fill="#fcebf1"/><path d="M1113 480L1215 470L1105 537Z" fill="#fceaf1"/><path d="M1215 470L1187 543L1105 537Z" fill="#fae8ef"/><path d="M1215 470L1256 478L1264 551Z" fill="#ebd9e0"/><path d="M1215 470L1264 551L1187 543Z" fill="#f8e5ec"/><path d="M1256 478L1309 466L1264 551Z" fill="#ffecf3"/><path d="M1309 466L1328 547L1264 551Z" fill="#ecd9e0"/><path d="M1309 466L1400 505L1400 579Z" fill="#f3dfe7"/><path d="M1309 466L1400 579L1328 547Z" fill="#f9e5ec"/><path d="M0 556L72 581L83 634Z" fill="#f0e7eb"/><path d="M0 556L83 634L0 644Z" fill="#f9f0f4"/><path d="M72 581L114 554L83 634Z" fill="#f6edf1"/><path d="M114 554L117 617L83 634Z" fill="#fff6fa"/><path d="M114 554L185 551L210 636Z" fill="#efe5e9"/><path d="M114 554L210 636L117 617Z" fill="#fdf4f8"/><path d="M185 551L295 534L210 636Z" fill="#fdf3f8"/><path d="M295 534L302 645L210 636Z" fill="#efe4e9"/><path d="M295 534L329 556L341 657Z" fill="#fff6fb"/><path d="M295 534L341 657L302 645Z" fill="#fff8fd"/><path d="M329 556L413 563L341 657Z" fill="#f0e4e9"/><path d="M413 563L400 617L341 657Z" fill="#f2e6eb"/><path d="M413 563L465 558L479 635Z" fill="#f0e4e9"/><path d="M413 563L479 635L400 617Z" fill="#fff6fb"/><path d="M465 558L581 584L479 635Z" fill="#f3e6eb"/><path d="M581 584L569 642L479 635Z" fill="#f3e5eb"/><path d="M581 584L644 582L646 651Z" fill="#f4e6eb"/><path d="M581 584L646 651L569 642Z" fill="#f8eaef"/><path d="M644 582L725 567L646 651Z" fill="#f9eaf0"/><path d="M725 567L710 625L646 651Z" fill="#fff2f8"/><path d="M725 567L747 564L784 639Z" fill="#ecdde3"/><path d="M725 567L784 639L710 625Z" fill="#f5e6ec"/><path d="M747 564L865 543L784 639Z" fill="#f8e9ef"/><path d="M865 543L852 614L784 639Z" fill="#fff0f6"/><path d="M865 543L895 552L906 638Z" fill="#f2e2e8"/><path d="M865 543L906 638L852 614Z" fill="#f6e6ed"/><path d="M895 552L1002 542L906 638Z" fill="#f1e0e7"/><path d="M1002 542L975 651L906 638Z" fill="#f6e5eb"/><path d="M1002 542L1038 582L1057 620Z" fill="#fdecf3"/><path d="M1002 542L1057 620L975 651Z" fill="#eedce3"/><path d="M1038 582L1105 537L1057 620Z" fill="#f5e3ea"/><path d="M1105 537L1119 607L1057 620Z" fill="#ebd9e0"/><path d="M1105 537L1187 543L1174 653Z" fill="#feebf3"/><path d="M1105 537L1174 653L1119 607Z" fill="#eedbe2"/><path d="M1187 543L1264 551L1174 653Z" fill="#ead8df"/><path d="M1264 551L1280 647L1174 653Z" fill="#f1dee5"/><path d="M1264 551L1328 547L1321 653Z" fill="#f9e5ec"/><path d="M1264 551L1321 653L1280 647Z" fill="#fae6ee"/><path d="M1328 547L1400 579L1321 653Z" fill="#edd8e0"/><path d="M1400 579L1400 614L1321 653Z" fill="#f4e0e7"/><path d="M0 644L83 634L0 717Z" fill="#fff6fa"/><path d="M83 634L94 696L0 717Z" fill="#f0e6ea"/><path d="M83 634L117 617L140 676Z" fill="#f2e9ed"/><path d="M83 634L140 676L94 696Z" fill="#eee4e8"/><path d="M117 617L210 636L140 676Z" fill="#fff8fc"/><path d="M210 636L235 707L140 676Z" fill="#fff4f9"/><path d="M210 636L302 645L263 689Z" fill="#f7ebf0"/><path d="M210 636L263 689L235 707Z" fill="#eee3e8"/><path d="M302 645L341 657L263 689Z" fill="#fef2f7"/><path d="M341 657L332 675L263 689Z" fill="#f0e4e9"/><path d="M341 657L400 617L419 708Z" fill="#f8ecf1"/><path d="M341 657L419 708L332 675Z" fill="#f1e5ea"/><path d="M400 617L479 635L419 708Z" fill="#fdf1f6"/><path d="M479 635L500 691L419 708Z" fill="#f1e3e9"/><path d="M479 635L569 642L554 685Z" fill="#faecf2"/><path d="M479 635L554 685L500 691Z" fill="#efe1e7"/><path d="M569 642L646 651L554 685Z" fill="#ecdee4"/><path d="M646 651L646 712L554 685Z" fill="#ecdee3"/><path d="M646 651L710 625L713 704Z" fill="#f7e8ee"/><path d="M646 651L713 704L646 712Z" fill="#fbecf2"/><path d="M710 625L784 639L713 704Z" fill="#ecdde3"/><path d="M784 639L763 701L713 704Z" fill="#feeef4"/><path d="M784 639L852 614L860 693Z" fill="#ecdce2"/><path d="M784 639L860 693L763 701Z" fill="#ffeff5"/><path d="M852 614L906 638L860 693Z" fill="#f8e7ee"/><path d="M906 638L901 696L860 693Z" fill="#f3e2e8"/><path d="M906 638L975 651L964 690Z" fill="#ebdae1"/><path d="M906 638L964 690L901 696Z" fill="#f1e0e7"/><path d="M975 651L1057 620L964 690Z" fill="#feedf4"/><path d="M1057 620L1054 709L964 690Z" fill="#ffedf4"/><path d="M1057 620L1119 607L1105 712Z" fill="#fbe8ef"/><path d="M1057 620L1105 712L1054 709Z" fill="#f9e7ee"/><path d="M1119 607L1174 653L1105 712Z" fill="#f5e2e9"/><path d="M1174 653L1205 676L1105 712Z" fill="#fdeaf1"/><path d="M1174 653L1280 647L1259 713Z" fill="#eedae2"/><path d="M1174 653L1259 713L1205 676Z" fill="#e8d5dc"/><path d="M1280 647L1321 653L1259 713Z" fill="#ecd8df"/><path d="M1321 653L1347 679L1259 713Z" fill="#fbe7ef"/><path d="M1321 653L1400 614L1400 693Z" fill="#ebd5dd"/><path d="M1321 653L1400 693L1347 679Z" fill="#f3dee6"/><path d="M0 717L94 696L60 758Z" fill="#fff5f9"/><path d="M0 717L60 758L0 767Z" fill="#f7edf1"/><path d="M94 696L140 676L60 758Z" fill="#f7edf1"/><path d="M140 676L160 752L60 758Z" fill="#f9eff3"/><path d="M140 676L235 707L205 774Z" fill="#fbf0f4"/><path d="M140 676L205 774L160 752Z" fill="#fff8fd"/><path d="M235 707L263 689L205 774Z" fill="#f7ecf0"/><path d="M263 689L293 775L205 774Z" fill="#fff6fb"/><path d="M263 689L332 675L376 760Z" fill="#ede1e6"/><path d="M263 689L376 760L293 775Z" fill="#fef1f6"/><path d="M332 675L419 708L376 760Z" fill="#f0e3e9"/><path d="M419 708L415 796L376 760Z" fill="#f8eaf0"/><path d="M419 708L500 691L483 767Z" fill="#f3e5eb"/><path d="M419 708L483 767L415 796Z" fill="#fbeef3"/><path d="M500 691L554 685L483 767Z" fill="#fdeff5"/><path d="M554 685L557 744L483 767Z" fill="#fff2f7"/><path d="M554 685L646 712L631 770Z" fill="#fff1f7"/><path d="M554 685L631 770L557 744Z" fill="#f7e9ee"/><path d="M646 712L713 704L631 770Z" fill="#f9e9f0"/><path d="M713 704L713 752L631 770Z" fill="#faeaf1"/><path d="M713 704L763 701L758 769Z" fill="#f6e6ec"/><path d="M713 704L758 769L713 752Z" fill="#fdedf3"/><path d="M763 701L860 693L758 769Z" fill="#fbeaf1"/><path d="M860 693L839 765L758 769Z" fill="#f2e1e7"/><path d="M860 693L901 696L896 748Z" fill="#f8e7ee"/><path d="M860 693L896 748L839 765Z" fill="#f0dee5"/><path d="M901 696L964 690L896 748Z" fill="#f2e0e7"/><path d="M964 690L972 754L896 748Z" fill="#f5e3ea"/><path d="M964 690L1054 709L1034 786Z" fill="#efdce4"/><path d="M964 690L1034 786L972 754Z" fill="#f3e1e8"/><path d="M1054 709L1105 712L1034 786Z" fill="#f9e6ed"/><path d="M1105 712L1143 763L1034 786Z" fill="#fdeaf1"/><path d="M1105 712L1205 676L1195 758Z" fill="#eedae2"/><path d="M1105 712L1195 758L1143 763Z" fill="#fae6ee"/><path d="M1205 676L1259 713L1195 758Z" fill="#ead6de"/><path d="M1259 713L1261 769L1195 758Z" fill="#edd8e0"/><path d="M1259 713L1347 679L1319 758Z" fill="#f4dee6"/><path d="M1259 713L1319 758L1261 769Z" fill="#e8d3db"/><path d="M1347 679L1400 693L1319 758Z" fill="#f4dee6"/><path d="M1400 693L1400 743L1319 758Z" fill="#f4dee7"/><path d="M0 767L60 758L0 845Z" fill="#f9eff3"/><path d="M60 758L64 818L0 845Z" fill="#fff5f9"/><path d="M60 758L160 752L122 852Z" fill="#f1e6eb"/><path d="M60 758L122 852L64 818Z" fill="#fcf1f6"/><path d="M160 752L205 774L122 852Z" fill="#fdf1f6"/><path d="M205 774L193 863L122 852Z" fill="#faeef3"/><path d="M205 774L293 775L258 849Z" fill="#f8ecf1"/><path d="M205 774L258 849L193 863Z" fill="#fbeff4"/><path d="M293 775L376 760L258 849Z" fill="#f3e7ec"/><path d="M376 760L326 837L258 849Z" fill="#fceef4"/><path d="M376 760L415 796L414 855Z" fill="#f2e4ea"/><path d="M376 760L414 855L326 837Z" fill="#f5e8ed"/><path d="M415 796L483 767L414 855Z" fill="#f6e8ed"/><path d="M483 767L469 858L414 855Z" fill="#f2e3e9"/><path d="M483 767L557 744L545 848Z" fill="#f6e7ed"/><path d="M483 767L545 848L469 858Z" fill="#f4e5eb"/><path d="M557 744L631 770L545 848Z" fill="#fff2f8"/><path d="M631 770L605 832L545 848Z" fill="#eedee4"/><path d="M631 770L713 752L696 845Z" fill="#f6e5ec"/><path d="M631 770L696 845L605 832Z" fill="#f5e5eb"/><path d="M713 752L758 769L696 845Z" fill="#ecdbe2"/><path d="M758 769L788 849L696 845Z" fill="#ead9df"/><path d="M758 769L839 765L845 834Z" fill="#f2e1e7"/><path d="M758 769L845 834L788 849Z" fill="#f1e0e7"/><path d="M839 765L896 748L845 834Z" fill="#fae9f0"/><path d="M896 748L910 855L845 834Z" fill="#fae8ef"/><path d="M896 748L972 754L958 853Z" fill="#feecf3"/><path d="M896 748L958 853L910 855Z" fill="#f2e0e7"/><path d="M972 754L1034 786L958 853Z" fill="#f7e4ec"/><path d="M1034 786L1045 856L958 853Z" fill="#f2dfe6"/><path d="M1034 786L1143 763L1146 848Z" fill="#ebd7df"/><path d="M1034 786L1146 848L1045 856Z" fill="#e9d5dd"/><path d="M1143 763L1195 758L1146 848Z" fill="#f2dee6"/><path d="M1195 758L1164 825L1146 848Z" fill="#e8d3db"/><path d="M1195 758L1261 769L1248 856Z" fill="#f1dce4"/><path d="M1195 758L1248 856L1164 825Z" fill="#e8d3db"/><path d="M1261 769L1319 758L1248 856Z" fill="#ebd5dd"/><path d="M1319 758L1334 865L1248 856Z" fill="#e9d3db"/><path d="M1319 758L1400 743L1400 826Z" fill="#fae3ec"/><path d="M1319 758L1400 826L1334 865Z" fill="#e6cfd8"/><path d="M0 845L64 818L57 920Z" fill="#fff4f8"/><path d="M0 845L57 920L0 907Z" fill="#f3e8ec"/><path d="M64 818L122 852L57 920Z" fill="#f6ebf0"/><path d="M122 852L147 893L57 920Z" fill="#fff5fa"/><path d="M122 852L193 863L190 922Z" fill="#fcf0f5"/><path d="M122 852L190 922L147 893Z" fill="#fcf0f5"/><path d="M193 863L258 849L190 922Z" fill="#f9ecf2"/><path d="M258 849L275 916L190 922Z" fill="#ede0e5"/><path d="M258 849L326 837L366 909Z" fill="#fff4fa"/><path d="M258 849L366 909L275 916Z" fill="#f6e8ed"/><path d="M326 837L414 855L366 909Z" fill="#fceef3"/><path d="M414 855L398 927L366 909Z" fill="#f4e6ec"/><path d="M414 855L469 858L483 936Z" fill="#f4e5eb"/><path d="M414 855L483 936L398 927Z" fill="#faebf1"/><path d="M469 858L545 848L483 936Z" fill="#faeaf1"/><path d="M545 848L580 920L483 936Z" fill="#f8e8ee"/><path d="M545 848L605 832L619 935Z" fill="#f8e8ee"/><path d="M545 848L619 935L580 920Z" fill="#ecdbe2"/><path d="M605 832L696 845L619 935Z" fill="#f6e6ec"/><path d="M696 845L714 894L619 935Z" fill="#f8e7ee"/><path d="M696 845L788 849L774 886Z" fill="#efdde4"/><path d="M696 845L774 886L714 894Z" fill="#fbeaf1"/><path d="M788 849L845 834L774 886Z" fill="#f2e0e7"/><path d="M845 834L861 928L774 886Z" fill="#f8e5ec"/><path d="M845 834L910 855L908 901Z" fill="#f1dfe6"/><path d="M845 834L908 901L861 928Z" fill="#feebf2"/><path d="M910 855L958 853L908 901Z" fill="#e8d5dd"/><path d="M958 853L992 887L908 901Z" fill="#f6e3ea"/><path d="M958 853L1045 856L1066 934Z" fill="#f4e0e8"/><path d="M958 853L1066 934L992 887Z" fill="#eedae1"/><path d="M1045 856L1146 848L1066 934Z" fill="#f6e1e9"/><path d="M1146 848L1116 903L1066 934Z" fill="#fae6ee"/><path d="M1146 848L1164 825L1213 918Z" fill="#f2dce5"/><path d="M1146 848L1213 918L1116 903Z" fill="#f3dee6"/><path d="M1164 825L1248 856L1213 918Z" fill="#f8e2eb"/><path d="M1248 856L1262 893L1213 918Z" fill="#f4dde6"/><path d="M1248 856L1334 865L1305 900Z" fill="#ebd4dd"/><path d="M1248 856L1305 900L1262 893Z" fill="#f2dbe4"/><path d="M1334 865L1400 826L1305 900Z" fill="#e6cfd8"/><path d="M1400 826L1400 918L1305 900Z" fill="#f3dae3"/><path d="M0 907L57 920L0 969Z" fill="#fff8fc"/><path d="M57 920L47 991L0 969Z" fill="#fff7fc"/><path d="M57 920L147 893L136 996Z" fill="#faeef3"/><path d="M57 920L136 996L47 991Z" fill="#f6eaef"/><path d="M147 893L190 922L136 996Z" fill="#fff5fa"/><path d="M190 922L234 962L136 996Z" fill="#fdeff5"/><path d="M190 922L275 916L262 1006Z" fill="#fceff4"/><path d="M190 922L262 1006L234 962Z" fill="#fbeef3"/><path d="M275 916L366 909L262 1006Z" fill="#f6e8ee"/><path d="M366 909L375 999L262 1006Z" fill="#ecdde3"/><path d="M366 909L398 927L403 962Z" fill="#ecdde3"/><path d="M366 909L403 962L375 999Z" fill="#fcedf3"/><path d="M398 927L483 936L403 962Z" fill="#f7e8ee"/><path d="M483 936L480 1005L403 962Z" fill="#fdedf4"/><path d="M483 936L580 920L582 968Z" fill="#f2e2e8"/><path d="M483 936L582 968L480 1005Z" fill="#efdfe5"/><path d="M580 920L619 935L582 968Z" fill="#f5e4ea"/><path d="M619 935L612 967L582 968Z" fill="#fae9f0"/><path d="M619 935L714 894L697 956Z" fill="#ecdbe2"/><path d="M619 935L697 956L612 967Z" fill="#f7e6ed"/><path d="M714 894L774 886L697 956Z" fill="#f6e5ec"/><path d="M774 886L751 987L697 956Z" fill="#f3e1e8"/><path d="M774 886L861 928L859 994Z" fill="#f4e1e9"/><path d="M774 886L859 994L751 987Z" fill="#eddae2"/><path d="M861 928L908 901L859 994Z" fill="#ebd8e0"/><path d="M908 901L920 991L859 994Z" fill="#f7e3eb"/><path d="M908 901L992 887L995 976Z" fill="#f9e5ed"/><path d="M908 901L995 976L920 991Z" fill="#ebd7df"/><path d="M992 887L1066 934L995 976Z" fill="#fde8f0"/><path d="M1066 934L1037 973L995 976Z" fill="#f3dee6"/><path d="M1066 934L1116 903L1141 969Z" fill="#e9d4dc"/><path d="M1066 934L1141 969L1037 973Z" fill="#f4dfe7"/><path d="M1116 903L1213 918L1141 969Z" fill="#e9d3dc"/><path d="M1213 918L1164 962L1141 969Z" fill="#f8e1ea"/><path d="M1213 918L1262 893L1245 968Z" fill="#e6cfd7"/><path d="M1213 918L1245 968L1164 962Z" fill="#e8d1d9"/><path d="M1262 893L1305 900L1245 968Z" fill="#f7e0e9"/><path d="M1305 900L1323 963L1245 968Z" fill="#ebd3dc"/><path d="M1305 900L1400 918L1400 964Z" fill="#f4dbe4"/><path d="M1305 900L1400 964L1323 963Z" fill="#f8dfe9"/><path d="M0 969L47 991L75 1048Z" fill="#fff6fb"/><path d="M0 969L75 1048L0 1058Z" fill="#eee2e7"/><path d="M47 991L136 996L75 1048Z" fill="#ede0e5"/><path d="M136 996L142 1040L75 1048Z" fill="#f9ecf1"/><path d="M136 996L234 962L192 1075Z" fill="#f1e3e8"/><path d="M136 996L192 1075L142 1040Z" fill="#f3e5eb"/><path d="M234 962L262 1006L192 1075Z" fill="#f9ebf0"/><path d="M262 1006L254 1024L192 1075Z" fill="#f7e9ef"/><path d="M262 1006L375 999L358 1043Z" fill="#feeff5"/><path d="M262 1006L358 1043L254 1024Z" fill="#eddee4"/><path d="M375 999L403 962L358 1043Z" fill="#f5e6ec"/><path d="M403 962L415 1075L358 1043Z" fill="#f1e2e8"/><path d="M403 962L480 1005L467 1063Z" fill="#efdfe5"/><path d="M403 962L467 1063L415 1075Z" fill="#f4e4eb"/><path d="M480 1005L582 968L467 1063Z" fill="#f5e4eb"/><path d="M582 968L582 1028L467 1063Z" fill="#fae9f0"/><path d="M582 968L612 967L646 1067Z" fill="#ecdae1"/><path d="M582 968L646 1067L582 1028Z" fill="#efdee5"/><path d="M612 967L697 956L646 1067Z" fill="#f4e2e9"/><path d="M697 956L714 1038L646 1067Z" fill="#eddbe2"/><path d="M697 956L751 987L763 1064Z" fill="#ecdae1"/><path d="M697 956L763 1064L714 1038Z" fill="#e9d6dd"/><path d="M751 987L859 994L763 1064Z" fill="#f2dfe6"/><path d="M859 994L825 1029L763 1064Z" fill="#f7e4eb"/><path d="M859 994L920 991L925 1061Z" fill="#f7e3eb"/><path d="M859 994L925 1061L825 1029Z" fill="#f6e2e9"/><path d="M920 991L995 976L925 1061Z" fill="#ead5dd"/><path d="M995 976L975 1060L925 1061Z" fill="#f2dde5"/><path d="M995 976L1037 973L1030 1057Z" fill="#f1dce4"/><path d="M995 976L1030 1057L975 1060Z" fill="#edd7df"/><path d="M1037 973L1141 969L1030 1057Z" fill="#f6e0e8"/><path d="M1141 969L1119 1050L1030 1057Z" fill="#ebd4dd"/><path d="M1141 969L1164 962L1208 1047Z" fill="#edd6df"/><path d="M1141 969L1208 1047L1119 1050Z" fill="#f7e0e9"/><path d="M1164 962L1245 968L1208 1047Z" fill="#e6ced7"/><path d="M1245 968L1285 1068L1208 1047Z" fill="#e8d0d9"/><path d="M1245 968L1323 963L1305 1044Z" fill="#f4dbe4"/><path d="M1245 968L1305 1044L1285 1068Z" fill="#f8dfe9"/><path d="M1323 963L1400 964L1305 1044Z" fill="#f5dce6"/><path d="M1400 964L1400 1044L1305 1044Z" fill="#f3d9e3"/><path d="M0 1058L75 1048L0 1127Z" fill="#eee1e6"/><path d="M75 1048L83 1137L0 1127Z" fill="#fbeef3"/><path d="M75 1048L142 1040L142 1128Z" fill="#fff2f8"/><path d="M75 1048L142 1128L83 1137Z" fill="#efe1e6"/><path d="M142 1040L192 1075L142 1128Z" fill="#faecf1"/><path d="M192 1075L233 1132L142 1128Z" fill="#fdeff5"/><path d="M192 1075L254 1024L280 1134Z" fill="#fff0f6"/><path d="M192 1075L280 1134L233 1132Z" fill="#efe0e6"/><path d="M254 1024L358 1043L280 1134Z" fill="#ecdde3"/><path d="M358 1043L365 1141L280 1134Z" fill="#ffeff6"/><path d="M358 1043L415 1075L412 1110Z" fill="#efdfe6"/><path d="M358 1043L412 1110L365 1141Z" fill="#f0dfe6"/><path d="M415 1075L467 1063L412 1110Z" fill="#f0e0e6"/><path d="M467 1063L486 1131L412 1110Z" fill="#f8e7ed"/><path d="M467 1063L582 1028L537 1097Z" fill="#f6e5ec"/><path d="M467 1063L537 1097L486 1131Z" fill="#ffedf4"/><path d="M582 1028L646 1067L537 1097Z" fill="#ebd9e0"/><path d="M646 1067L640 1124L537 1097Z" fill="#eedce3"/><path d="M646 1067L714 1038L710 1110Z" fill="#f0dee5"/><path d="M646 1067L710 1110L640 1124Z" fill="#ebd8df"/><path d="M714 1038L763 1064L710 1110Z" fill="#ecd9e0"/><path d="M763 1064L790 1094L710 1110Z" fill="#f4e1e8"/><path d="M763 1064L825 1029L861 1136Z" fill="#f1dee5"/><path d="M763 1064L861 1136L790 1094Z" fill="#e8d4dc"/><path d="M825 1029L925 1061L861 1136Z" fill="#f0dce3"/><path d="M925 1061L929 1111L861 1136Z" fill="#ecd7df"/><path d="M925 1061L975 1060L970 1107Z" fill="#fce7ef"/><path d="M925 1061L970 1107L929 1111Z" fill="#e8d3db"/><path d="M975 1060L1030 1057L970 1107Z" fill="#fde7ef"/><path d="M1030 1057L1048 1118L970 1107Z" fill="#f1dae3"/><path d="M1030 1057L1119 1050L1134 1107Z" fill="#ebd4dc"/><path d="M1030 1057L1134 1107L1048 1118Z" fill="#e6cfd8"/><path d="M1119 1050L1208 1047L1134 1107Z" fill="#fbe3ec"/><path d="M1208 1047L1166 1094L1134 1107Z" fill="#e9d1da"/><path d="M1208 1047L1285 1068L1243 1110Z" fill="#f5dce5"/><path d="M1208 1047L1243 1110L1166 1094Z" fill="#f2d9e2"/><path d="M1285 1068L1305 1044L1243 1110Z" fill="#f6dce6"/><path d="M1305 1044L1312 1142L1243 1110Z" fill="#f2d8e2"/><path d="M1305 1044L1400 1044L1400 1116Z" fill="#e3c8d2"/><path d="M1305 1044L1400 1116L1312 1142Z" fill="#f0d5df"/><path d="M0 1127L83 1137L57 1170Z" fill="#f2e4ea"/><path d="M0 1127L57 1170L0 1198Z" fill="#fef1f6"/><path d="M83 1137L142 1128L57 1170Z" fill="#f7e9ef"/><path d="M142 1128L137 1199L57 1170Z" fill="#fbedf3"/><path d="M142 1128L233 1132L217 1204Z" fill="#ebdce2"/><path d="M142 1128L217 1204L137 1199Z" fill="#fff0f6"/><path d="M233 1132L280 1134L217 1204Z" fill="#eedfe5"/><path d="M280 1134L278 1183L217 1204Z" fill="#fff1f7"/><path d="M280 1134L365 1141L355 1169Z" fill="#feeef4"/><path d="M280 1134L355 1169L278 1183Z" fill="#eadae0"/><path d="M365 1141L412 1110L355 1169Z" fill="#f5e4ea"/><path d="M412 1110L439 1192L355 1169Z" fill="#f8e7ee"/><path d="M412 1110L486 1131L474 1181Z" fill="#fbe9f0"/><path d="M412 1110L474 1181L439 1192Z" fill="#f9e8ef"/><path d="M486 1131L537 1097L474 1181Z" fill="#ecdbe1"/><path d="M537 1097L562 1173L474 1181Z" fill="#eddbe2"/><path d="M537 1097L640 1124L639 1215Z" fill="#f8e6ed"/><path d="M537 1097L639 1215L562 1173Z" fill="#efdde4"/><path d="M640 1124L710 1110L639 1215Z" fill="#f3dfe7"/><path d="M710 1110L678 1213L639 1215Z" fill="#ead6de"/><path d="M710 1110L790 1094L795 1169Z" fill="#fae6ed"/><path d="M710 1110L795 1169L678 1213Z" fill="#f3dfe7"/><path d="M790 1094L861 1136L795 1169Z" fill="#fce7ef"/><path d="M861 1136L817 1208L795 1169Z" fill="#ecd7df"/><path d="M861 1136L929 1111L935 1189Z" fill="#f3dde5"/><path d="M861 1136L935 1189L817 1208Z" fill="#f1dbe3"/><path d="M929 1111L970 1107L935 1189Z" fill="#e8d2da"/><path d="M970 1107L967 1211L935 1189Z" fill="#fae4ec"/><path d="M970 1107L1048 1118L1070 1197Z" fill="#f1dae3"/><path d="M970 1107L1070 1197L967 1211Z" fill="#e6cfd8"/><path d="M1048 1118L1134 1107L1070 1197Z" fill="#efd7e0"/><path d="M1134 1107L1108 1213L1070 1197Z" fill="#ead2db"/><path d="M1134 1107L1166 1094L1171 1196Z" fill="#e9d0da"/><path d="M1134 1107L1171 1196L1108 1213Z" fill="#ebd2db"/><path d="M1166 1094L1243 1110L1171 1196Z" fill="#ead1db"/><path d="M1243 1110L1279 1194L1171 1196Z" fill="#f7dde7"/><path d="M1243 1110L1312 1142L1334 1174Z" fill="#e2c7d1"/><path d="M1243 1110L1334 1174L1279 1194Z" fill="#f6dbe5"/><path d="M1312 1142L1400 1116L1334 1174Z" fill="#e2c6d1"/><path d="M1400 1116L1400 1191L1334 1174Z" fill="#f7dae5"/><path d="M0 1198L57 1170L0 1246Z" fill="#ecdee3"/><path d="M57 1170L76 1235L0 1246Z" fill="#fcedf3"/><path d="M57 1170L137 1199L140 1256Z" fill="#f9ebf1"/><path d="M57 1170L140 1256L76 1235Z" fill="#f5e6ec"/><path d="M137 1199L217 1204L140 1256Z" fill="#ecdde3"/><path d="M217 1204L190 1242L140 1256Z" fill="#f6e6ed"/><path d="M217 1204L278 1183L277 1265Z" fill="#f0e0e6"/><path d="M217 1204L277 1265L190 1242Z" fill="#f1e1e7"/><path d="M278 1183L355 1169L277 1265Z" fill="#eddce3"/><path d="M355 1169L342 1252L277 1265Z" fill="#f9e8ef"/><path d="M355 1169L439 1192L397 1244Z" fill="#ead9df"/><path d="M355 1169L397 1244L342 1252Z" fill="#eddce3"/><path d="M439 1192L474 1181L397 1244Z" fill="#eedde4"/><path d="M474 1181L471 1285L397 1244Z" fill="#ebd9e0"/><path d="M474 1181L562 1173L573 1273Z" fill="#f7e5ec"/><path d="M474 1181L573 1273L471 1285Z" fill="#f6e3ea"/><path d="M562 1173L639 1215L573 1273Z" fill="#f9e6ed"/><path d="M639 1215L617 1269L573 1273Z" fill="#fce9f0"/><path d="M639 1215L678 1213L675 1277Z" fill="#e9d5dd"/><path d="M639 1215L675 1277L617 1269Z" fill="#f7e3ea"/><path d="M678 1213L795 1169L675 1277Z" fill="#f1dde5"/><path d="M795 1169L760 1278L675 1277Z" fill="#f4dfe7"/><path d="M795 1169L817 1208L831 1246Z" fill="#e7d2da"/><path d="M795 1169L831 1246L760 1278Z" fill="#f4dee6"/><path d="M817 1208L935 1189L831 1246Z" fill="#e7d1d9"/><path d="M935 1189L922 1241L831 1246Z" fill="#f9e3eb"/><path d="M935 1189L967 1211L989 1257Z" fill="#efd8e1"/><path d="M935 1189L989 1257L922 1241Z" fill="#e9d2db"/><path d="M967 1211L1070 1197L989 1257Z" fill="#efd7e0"/><path d="M1070 1197L1051 1273L989 1257Z" fill="#edd4de"/><path d="M1070 1197L1108 1213L1134 1256Z" fill="#e7ced8"/><path d="M1070 1197L1134 1256L1051 1273Z" fill="#f9e0ea"/><path d="M1108 1213L1171 1196L1134 1256Z" fill="#f9dfe9"/><path d="M1171 1196L1196 1260L1134 1256Z" fill="#e8ced8"/><path d="M1171 1196L1279 1194L1269 1255Z" fill="#f3d8e2"/><path d="M1171 1196L1269 1255L1196 1260Z" fill="#f0d5df"/><path d="M1279 1194L1334 1174L1269 1255Z" fill="#f2d6e0"/><path d="M1334 1174L1312 1261L1269 1255Z" fill="#f7dbe6"/><path d="M1334 1174L1400 1191L1400 1261Z" fill="#edd0da"/><path d="M1334 1174L1400 1261L1312 1261Z" fill="#f0d4de"/><path d="M0 1246L76 1235L57 1314Z" fill="#f1e2e8"/><path d="M0 1246L57 1314L0 1341Z" fill="#f2e3e9"/><path d="M76 1235L140 1256L57 1314Z" fill="#fdeef4"/><path d="M140 1256L115 1355L57 1314Z" fill="#eadbe1"/><path d="M140 1256L190 1242L214 1342Z" fill="#f2e2e9"/><path d="M140 1256L214 1342L115 1355Z" fill="#f2e2e8"/><path d="M190 1242L277 1265L214 1342Z" fill="#ebdbe1"/><path d="M277 1265L262 1317L214 1342Z" fill="#f4e3ea"/><path d="M277 1265L342 1252L356 1312Z" fill="#f8e7ee"/><path d="M277 1265L356 1312L262 1317Z" fill="#f7e5ec"/><path d="M342 1252L397 1244L356 1312Z" fill="#f6e4eb"/><path d="M397 1244L425 1307L356 1312Z" fill="#efdde4"/><path d="M397 1244L471 1285L474 1320Z" fill="#f8e6ed"/><path d="M397 1244L474 1320L425 1307Z" fill="#e9d6dd"/><path d="M471 1285L573 1273L474 1320Z" fill="#f6e3ea"/><path d="M573 1273L557 1308L474 1320Z" fill="#f0dce4"/><path d="M573 1273L617 1269L618 1351Z" fill="#ecd8e0"/><path d="M573 1273L618 1351L557 1308Z" fill="#fde9f1"/><path d="M617 1269L675 1277L618 1351Z" fill="#f6e2e9"/><path d="M675 1277L697 1341L618 1351Z" fill="#fae5ed"/><path d="M675 1277L760 1278L788 1323Z" fill="#fae5ed"/><path d="M675 1277L788 1323L697 1341Z" fill="#f2dde5"/><path d="M760 1278L831 1246L788 1323Z" fill="#f0dae3"/><path d="M831 1246L847 1338L788 1323Z" fill="#e8d1da"/><path d="M831 1246L922 1241L930 1307Z" fill="#fae3ec"/><path d="M831 1246L930 1307L847 1338Z" fill="#ebd4dd"/><path d="M922 1241L989 1257L930 1307Z" fill="#e5cdd6"/><path d="M989 1257L1005 1341L930 1307Z" fill="#f1d9e2"/><path d="M989 1257L1051 1273L1062 1308Z" fill="#fae1ea"/><path d="M989 1257L1062 1308L1005 1341Z" fill="#e6cdd6"/><path d="M1051 1273L1134 1256L1062 1308Z" fill="#f4dbe4"/><path d="M1134 1256L1123 1332L1062 1308Z" fill="#f7dce6"/><path d="M1134 1256L1196 1260L1171 1323Z" fill="#f1d6e0"/><path d="M1134 1256L1171 1323L1123 1332Z" fill="#f0d5df"/><path d="M1196 1260L1269 1255L1171 1323Z" fill="#f0d5df"/><path d="M1269 1255L1266 1342L1171 1323Z" fill="#f4d7e2"/><path d="M1269 1255L1312 1261L1348 1330Z" fill="#f5d8e3"/><path d="M1269 1255L1348 1330L1266 1342Z" fill="#e0c3ce"/><path d="M1312 1261L1400 1261L1348 1330Z" fill="#ecced9"/><path d="M1400 1261L1400 1316L1348 1330Z" fill="#f5d7e2"/><path d="M0 1341L57 1314L0 1400Z" fill="#f9eaf0"/><path d="M57 1314L70 1400L0 1400Z" fill="#f4e4ea"/><path d="M57 1314L115 1355L165 1400Z" fill="#efdfe5"/><path d="M57 1314L165 1400L70 1400Z" fill="#feeef4"/><path d="M115 1355L214 1342L165 1400Z" fill="#eedde4"/><path d="M214 1342L231 1400L165 1400Z" fill="#f9e8ef"/><path d="M214 1342L262 1317L287 1400Z" fill="#ffeef5"/><path d="M214 1342L287 1400L231 1400Z" fill="#f7e5ec"/><path d="M262 1317L356 1312L287 1400Z" fill="#f3e2e9"/><path d="M356 1312L325 1400L287 1400Z" fill="#f9e7ee"/><path d="M356 1312L425 1307L433 1400Z" fill="#f1dfe6"/><path d="M356 1312L433 1400L325 1400Z" fill="#f0dde5"/><path d="M425 1307L474 1320L433 1400Z" fill="#ffecf3"/><path d="M474 1320L466 1400L433 1400Z" fill="#ead6de"/><path d="M474 1320L557 1308L552 1400Z" fill="#f0dce4"/><path d="M474 1320L552 1400L466 1400Z" fill="#fce8f0"/><path d="M557 1308L618 1351L552 1400Z" fill="#f4e0e7"/><path d="M618 1351L627 1400L552 1400Z" fill="#f8e3eb"/><path d="M618 1351L697 1341L680 1400Z" fill="#e8d3db"/><path d="M618 1351L680 1400L627 1400Z" fill="#f2dde5"/><path d="M697 1341L788 1323L680 1400Z" fill="#eed8e0"/><path d="M788 1323L775 1400L680 1400Z" fill="#f9e3eb"/><path d="M788 1323L847 1338L851 1400Z" fill="#f2dbe4"/><path d="M788 1323L851 1400L775 1400Z" fill="#e8d1da"/><path d="M847 1338L930 1307L851 1400Z" fill="#e8d0d9"/><path d="M930 1307L887 1400L851 1400Z" fill="#e7cfd8"/><path d="M930 1307L1005 1341L987 1400Z" fill="#eed5de"/><path d="M930 1307L987 1400L887 1400Z" fill="#ebd2db"/><path d="M1005 1341L1062 1308L987 1400Z" fill="#e3c9d3"/><path d="M1062 1308L1038 1400L987 1400Z" fill="#e7cdd7"/><path d="M1062 1308L1123 1332L1105 1400Z" fill="#e7ccd7"/><path d="M1062 1308L1105 1400L1038 1400Z" fill="#eed3dd"/><path d="M1123 1332L1171 1323L1105 1400Z" fill="#e5cad4"/><path d="M1171 1323L1198 1400L1105 1400Z" fill="#f2d6e1"/><path d="M1171 1323L1266 1342L1278 1400Z" fill="#eccfda"/><path d="M1171 1323L1278 1400L1198 1400Z" fill="#e2c5d0"/><path d="M1266 1342L1348 1330L1278 1400Z" fill="#e5c7d2"/><path d="M1348 1330L1350 1400L1278 1400Z" fill="#e4c5d1"/><path d="M1348 1330L1400 1316L1400 1400Z" fill="#eecfdb"/><path d="M1348 1330L1400 1400L1350 1400Z" fill="#eecfdb"/></g>
</svg>
